<svg width="32" height="32" viewBox="0 0 32 32" fill="none" xmlns="http://www.w3.org/2000/svg">
<path id="Link icon" d="M14.2283 0.73125C15.2033 -0.24375 16.7846 -0.24375 17.7658 0.73125L22.3971 5.3625C23.1783 6.14375 23.1783 7.4125 22.3971 8.19375L17.4158 13.175C16.6346 13.9563 15.3658 13.9563 14.5846 13.175L9.60332 8.1875C8.82207 7.40625 8.82207 6.1375 9.60332 5.35625L14.2346 0.725L14.2283 0.73125ZM8.18457 9.60625L13.1658 14.5875C13.9471 15.3687 13.9471 16.6375 13.1658 17.4188L8.18457 22.3937C7.40332 23.175 6.13457 23.175 5.35332 22.3937L0.72832 17.7687C-0.24668 16.7937 -0.24668 15.2125 0.72832 14.2312L5.35957 9.6C6.14082 8.81875 7.40957 8.81875 8.19082 9.6L8.18457 9.60625ZM9.60332 23.8125L14.5846 18.8312C15.3658 18.05 16.6346 18.05 17.4158 18.8312L22.3908 23.8125C23.1721 24.5938 23.1721 25.8625 22.3908 26.6437L17.7596 31.275C16.7846 32.25 15.2033 32.25 14.2221 31.275L9.59082 26.6437C8.80957 25.8625 8.80957 24.5938 9.59082 23.8125H9.60332ZM23.8096 22.3937L18.8283 17.4125C18.0471 16.6313 18.0471 15.3625 18.8283 14.5813L23.8096 9.60625C24.5908 8.825 25.8596 8.825 26.6408 9.60625L31.2721 14.2375C32.2471 15.2125 32.2471 16.7937 31.2721 17.775L26.6408 22.4062C25.8596 23.1875 24.5908 23.1875 23.8096 22.4062V22.3937Z" fill="#754FF6"/>
</svg>
