<svg width="34" height="32" viewBox="0 0 34 32" fill="none" xmlns="http://www.w3.org/2000/svg">
<path id="Link icon" d="M33.2239 6.49385L29.6426 0.825098C29.3239 0.318848 28.7551 0.00634766 28.1489 0.00634766H5.84889C5.24264 0.00634766 4.67388 0.318848 4.35513 0.825098L0.767635 6.49385C-1.08236 9.41885 0.555135 13.4876 4.01138 13.9563C4.26138 13.9876 4.51764 14.0063 4.76764 14.0063C6.39889 14.0063 7.84889 13.2938 8.84264 12.1938C9.83639 13.2938 11.2864 14.0063 12.9176 14.0063C14.5489 14.0063 15.9989 13.2938 16.9926 12.1938C17.9864 13.2938 19.4364 14.0063 21.0676 14.0063C22.7051 14.0063 24.1489 13.2938 25.1426 12.1938C26.1426 13.2938 27.5864 14.0063 29.2176 14.0063C29.4739 14.0063 29.7239 13.9876 29.9739 13.9563C33.4426 13.4938 35.0864 9.4251 33.2301 6.49385H33.2239ZM30.2301 15.9376C30.2301 15.9376 30.2301 15.9376 30.2239 15.9376C29.8926 15.9813 29.5551 16.0063 29.2114 16.0063C28.4364 16.0063 27.6926 15.8876 26.9989 15.6751V24.0063H6.99889V15.6688C6.29889 15.8876 5.54889 16.0063 4.77389 16.0063C4.43014 16.0063 4.08639 15.9813 3.75514 15.9376H3.74889C3.49264 15.9001 3.24264 15.8563 2.99889 15.7938V24.0063V28.0063C2.99889 30.2126 4.79264 32.0063 6.99889 32.0063H26.9989C29.2051 32.0063 30.9989 30.2126 30.9989 28.0063V24.0063V15.7938C30.7489 15.8563 30.4989 15.9063 30.2301 15.9376Z" fill="#754FF6"/>
</svg>
